<?xml version="1.0" encoding="utf-8"?>
<!-- Generator: Adobe Illustrator 27.2.0, SVG Export Plug-In . SVG Version: 6.00 Build 0)  -->
<svg version="1.1" id="Layer_1" xmlns="http://www.w3.org/2000/svg" xmlns:xlink="http://www.w3.org/1999/xlink" x="0px"
	y="0px" viewBox="0 0 386.1 130.4" style="enable-background:new 0 0 386.1 130.4;" xml:space="preserve">
	<style type="text/css">
		.st0 {
			fill: #F9FAFB;
		}
	</style>
	<g id="p9pmW4.tif">
		<g>
			<path class="st0" d="M335.5,53.3c-2.4,2.7-4.9,5.3-7.2,8c-2.1,2.4-3.9,5.1-5.9,7.5c-0.6,0.7-1.6,1.2-2.5,1.5
			c-1.6,0.6-2.9-0.5-2.7-2.3c0.1-0.9,0.4-1.9,0.7-2.7c1-2.6,2.1-5.2,3.1-7.9c0.4-1,0.6-2.1,0.7-3.1c0-0.4-0.3-1-0.6-1.1
			c-0.3-0.1-0.9,0.1-1.2,0.4c-3.7,3.2-6.8,7-9.2,11.3c-1.9,3.4-4,6.8-6.3,10c-1.1,1.4-2.9,2.3-4.6,3c-1.4,0.6-2.3-0.5-1.9-2
			c0.6-2.4,1.4-4.8,2-7.2c0.3-1,0.6-2.2,0.3-3.1c-0.2-0.8-1.4-1.4-1.9-2.2c-0.3-0.5-0.6-1.3-0.3-1.7c1.9-3.3,4-6.5,6-9.8
			c0.4-0.6,0.6-1.4,0.9-2.1c0.8-1.9,3.8-2.7,5.4-1.4c1.3,1,0.5,2.2,0.2,3.4c-0.6,1.9-1.1,3.8-1.5,5.7c-0.1,0.5,0.3,1.1,0.5,1.7
			c0.5-0.3,1.2-0.5,1.5-0.9c3-3.1,5.8-6.4,8.9-9.3c1.6-1.5,3.7-2.7,6.2-2.6c1.3,0.1,2,0.6,2,1.9c-0.1,1.5-0.3,3.1-0.3,4.6
			c0,1,0,2.5,0.5,2.7c1.2,0.6,1.7-0.8,2.3-1.6c2.6-3.5,5.5-6.7,10.1-7.5c2.8-0.5,4.4,0.9,3.8,3.6c-0.6,2.4-1.7,4.7-2.6,7.1
			c-1.8,4.9-3.9,9.7-3.2,15.1c0.3,2.1,2.6,3,4.2,1.5c2.4-2.2,4.7-4.5,6.7-7c3.8-4.7,7.2-9.7,11.1-14.3c2.9-3.5,6.6-6,10.9-7.7
			c3.2-1.2,6.6-0.4,8.4,2.1c0.5,0.7,0.8,1.6,0.9,2.4c0.2,4-1.3,7.3-4.7,9.5c-2.1,1.4-4.1,2.7-6.3,3.9c-0.9,0.5-2.1,0.6-3.2,0.7
			c-0.5,0-1-0.4-1.5-0.7c0.4-0.4,0.6-0.8,1.1-1c3-1.6,5.9-3.5,8-6.3c1-1.3,1.9-2.7,2.5-4.2c0.8-1.7,0.1-2.6-1.8-2.6
			c-2.5,0-4.2,1.7-5.9,3c-3.5,2.8-6,6.5-8.2,10.3c-1.3,2.3-2,4.9-2.7,7.4c-0.8,2.7,0.5,5.1,2.8,6.1c1.7,0.8,4.3,0.7,6.1-0.1
			c3-1.3,5.9-3.2,8.5-5.3c2.2-1.7,3.9-4.1,5.7-6.2c1-1.2,1.7-2.5,2.7-3.7c0.3-0.3,0.9-0.6,1.3-0.5c0.4,0.1,0.9,0.8,0.9,1.1
			c-0.1,1.1-0.3,2.4-0.9,3.4c-2.8,4.7-6.6,8.7-11.4,11.4c-4.3,2.4-9.2,3.7-14.2,2.4c-2.7-0.7-5.3-2.2-6.4-5.3
			c-0.3-0.8-1-1.7-1.7-1.9c-0.6-0.1-1.5,0.6-2.1,1.2c-3.5,3.4-7,6.8-12.4,6.5c-2.3-0.1-4.3-1.9-4.6-4.1c-0.4-3.4-0.2-6.7,1.1-9.9
			c1-2.5,1.9-5.1,2.7-7.6c0.3-0.9,0-1.9-0.1-2.9C336,53.5,335.7,53.4,335.5,53.3L335.5,53.3z" />
			<path class="st0" d="M217.9,63.8c-2.1,2.4-4.2,4.8-6.4,7c-1.8,1.7-4,3.1-6,4.7c-0.5,0.3-1.1,0.6-1.6,0.6c-0.7-0.1-1.5-0.4-2.2-0.7
			c0.4-0.5,0.8-1,1.3-1.5c1.9-1.7,3.9-3.2,5.7-5c2.5-2.6,4.9-5.2,7.3-7.9c1.9-2.2,3.7-4.6,5.6-6.9c1.4-1.7,3.2-1.5,4.2,0.5
			c0.3,0.7,0.6,1.6,0.5,2.4c-0.4,2.6-0.9,5.2-1.3,7.8c-0.3,1.8-0.6,3.6-1,5.4c-1.1,4.9-2.2,9.9-3.4,14.8c-0.1,0.5-0.3,0.9-0.4,1.3
			c-0.9,3.9-1.6,7.9-2.8,11.8c-0.8,2.8-2.1,5.5-3.3,8.1c-0.8,1.9-1.9,3.6-2.7,5.5c-3.1,7-8,12.1-14.8,15.8
			c-4.2,2.2-8.5,2.4-12.7,1.5c-4.1-1-7.1-3.8-9.3-7.6c-1.7-3-2.1-6.2-1.6-9.4c0.5-3.7,2-7,4.9-9.5c2-1.8,7.8-1.2,9.5,0.9
			c0,0,0.1,0.1,0.1,0.1c2.6,1,2.3,3,1.8,5.1c-0.1,0.4,0.2,0.9,0.4,1.3c0.6,1.4,0.2,2.5-1.2,3.1c-1.6,0.7-2.8-0.1-3.9-0.9
			c-0.5-0.4-0.6-1.5-0.6-2.2c0-1.5,1.4-1.5,2.4-1.8c0.6-0.2,1.2-0.6,1.8-0.9c-0.4-0.5-0.7-1.2-1.2-1.6c-3.8-3.1-8.6-1.1-9.4,4
			c-0.3,1.9-0.4,3.8-0.2,5.7c0.3,4,3.1,7.2,7,8.1c5.5,1.4,10.3-0.1,14.4-3.8c2.7-2.4,5.1-5.2,7.4-8c1.1-1.3,1.8-3,2.5-4.6
			c1-2.3,1.9-4.7,2.8-7.1c1.3-3.8,2.7-7.7,3.7-11.6c1.2-4.5,1.9-9,2.9-13.5c0.5-2.3,1.1-4.6,1.5-6.9c0.2-1.1,0-2.3,0-3.5
			C218.7,64.2,218.3,64,217.9,63.8L217.9,63.8z" />
			<path class="st0"
				d="M247.3,69.7c0.4-1.5,0.8-3.1,1.2-4.6c0.1-0.3,0.2-0.6,0.3-0.8c0.8-2.6,1.6-5.3,2.4-7.9
			c0.2-0.8,0.5-1.6,0.5-2.4c0-0.4-0.3-1.1-0.7-1.3c-0.3-0.2-1.1,0-1.4,0.3c-2.3,3-4.6,5.9-6.7,9.1c-1.9,2.9-3.6,5.9-5.4,8.9
			c-0.4,0.6-0.8,1.2-1,1.9c-1.1,2.9-3.5,4.2-6.2,5.1c-1.6,0.5-2.3-0.1-2.1-1.8c0.1-1.2,0.5-2.4,0.7-3.6c0.5-2.3,1.2-4.6,1.5-6.9
			c0.1-0.6-0.5-1.6-1-1.9c-1.5-0.8-1.6-1.8-0.9-3.1c1.6-2.9,3.4-5.7,4.9-8.6c0.6-1.1,0.9-2.4,1.2-3.7c0.3-1.9,1.8-2.6,3.2-2.9
			c2-0.5,3.3,1.1,2.9,3.2c-0.6,2.7-1.3,5.4-1.9,8.1c-0.1,0.4-0.2,1-0.1,1.4c0.2,0.7,0.6,1.4,0.9,2.2c0.5-0.6,0.9-1.1,1.4-1.7
			c1.5-2,2.9-4,4.5-5.9c2.4-2.8,4.7-5.8,8.2-7.5c0.9-0.4,1.8-0.9,2.8-1c2.2-0.3,3.3,0.7,3.3,2.9c0,1.1-0.3,2.3-0.6,3.4
			c-0.3,1-0.7,2-1,3c-1,3.1-1.7,6.3-3,9.2c-1.3,2.8-1.3,5.7-1.3,8.7c0,1.7,1,2.5,2.6,2.5c0.7,0,1.6-0.3,2-0.8
			c2.7-2.9,5.3-5.9,7.8-8.9c1.1-1.3,1.9-2.7,3-3.9c0.5-0.5,1.3-0.8,2-0.9c1.2-0.2,1.6,0.6,1,1.7c-3.1,5.3-6.8,10.2-11.7,13.8
			c-2.9,2.2-6.7,2.8-10.2,1.1c-1.2-0.6-1.8-2.4-2.4-3.7c-0.4-0.8-0.2-1.7-0.3-2.6C247.4,69.7,247.3,69.7,247.3,69.7L247.3,69.7z" />
			<path class="st0" d="M182.1,48.6c-0.4,0-0.3,0-0.2,0c1,0.3,2.6,0.5,2.7,1c0.3,1-0.3,2.2-0.7,3.2c-0.7,2-1.7,3.9-2.3,5.9
			c-1.4,4.4-3.3,8.8-2.8,13.6c0.1,1,0.5,2.4,1.2,2.9c0.5,0.3,2-0.3,2.8-0.8c3.5-2.2,5.9-5.6,8.6-8.8c1.6-1.9,3-4,5.4-5.4
			c2.3-1.4,3.7-4.1,5.8-5.9c2.8-2.2,5.9-4,8.8-6.1c3.1-2.2,6.6-2.1,10-1.6c1.4,0.2,2.7,1.1,3.9,1.8c0.3,0.2,0.7,1.1,0.6,1.3
			c-0.3,0.4-0.9,0.6-1.4,0.8c-0.2,0.1-0.6-0.1-0.8-0.2c-3.4-1.7-6.5-0.3-9.5,1.2c-4.5,2.3-8,5.8-11,9.7c-2,2.5-3.5,5.4-4.8,8.3
			c-0.6,1.3-0.3,3-0.4,4.5c-0.1,0.6-0.2,1.3-0.5,1.6c-0.2,0.2-1.3,0-1.5-0.4c-0.9-1.2-1.7-2.5-2.2-3.9c-0.6-1.6-0.8-1.7-2.2-0.6
			c-1.6,1.3-3,2.9-4.7,4c-2.5,1.7-4.9,3.5-8.3,3.4c-3,0-6.4-3.4-6-6.6c0.7-5.3,1.7-10.6,3.5-15.7c0.7-2,1.5-4,2.5-6
			C179.4,48.5,179.7,48.5,182.1,48.6L182.1,48.6z" />
			<path class="st0" d="M167.5,37.7c1.1,0.1,2.1,0.1,3.1,0.3c3.1,0.6,4.2,2.3,3.5,5.4c-0.5,2.4-2.4,4.8-4,4.9c-0.5,0-1.2-0.1-1.3-0.5
			c-0.2-0.3,0.1-1,0.3-1.4c0.2-0.4,0.7-0.6,0.8-1c0.2-0.9,0.5-2,0.2-2.7c-0.3-0.5-1.6-0.9-2.3-0.7c-2.2,0.8-4.5,1.5-6.4,2.8
			c-3,2.1-2.7,5.4,0.4,7.5c1.6,1,3.3,1.9,5,2.7c4.2,1.8,5.4,6.4,2.7,10.3c-2.8,4.1-6.2,7.6-10.5,10.1c-3.8,2.2-8,3.5-12.6,2.5
			c-3.1-0.7-4.3-2.3-4.3-5.5c0-4.4,2-7.8,5.2-10.5c0.3-0.3,1-0.2,1.6-0.2c0.1,0.5,0.3,1,0.1,1.4c-0.3,0.7-0.9,1.2-1.3,1.9
			c-0.4,0.6-0.9,1.3-1,2c-0.7,3.9,1.7,6.2,5.9,5.8c5.1-0.6,9.4-2.8,12.5-6.9c1.3-1.7,1.9-3.7,0.8-5.5c-0.8-1.2-2.3-2.1-3.7-2.8
			c-2.2-1.1-4.4-1.9-6.7-2.8c-3.9-1.5-5.5-5.3-3-8.9C156.2,40.6,161.3,38.3,167.5,37.7L167.5,37.7z" />
			<path class="st0" d="M184.9,43.3c-1.2-0.3-2.2-1.5-2.1-2.6c0.2-2.2,2.8-4.3,5-3.9c1.8,0.3,2.5,2.7,1,4.2
			C187.7,42,186.2,42.5,184.9,43.3L184.9,43.3z" />
		</g>
	</g>
	<g id="zq01D3">
		<g>
			<path class="st0" d="M97.8,56.5V28.5c-3.3,0-6.5,0-9.7,0c-3.4,0-6.8,0-10.2,0c-4.4,0-4.4,0-4.4-4.6c0-5.4,0-10.8,0-16.3
			c0-1.1,0-2.2,0-3.4c-1.2-0.1-2.1-0.2-3-0.2c-20.7,0-41.4,0-62,0C4.3,4,4,4.3,4,8.5C4,46.3,4,84.2,4,122c0,4.2,0.3,4.5,4.4,4.5
			c28.3,0,56.6,0,84.9,0c4.2,0,4.4-0.2,4.4-4.4c0-6,0.3-12.1-0.1-18.1c-0.3-4.5,1.2-8.2,4-12c0.1,1,0.2,1.7,0.2,2.5
			c0,9.6,0,19.3,0,28.9c0,4.8-2.2,7.1-6.9,7.1c-29.3,0-58.6,0-87.9,0c-4.9,0-7-2.1-7-6.9C0,84.6,0,45.8,0,6.9C0,2.1,2.1,0,7,0
			c22.3,0,44.6,0,66.9,0.1c1.4,0,3.1,0.8,4.1,1.8c7.5,7.3,14.9,14.7,22.2,22.1c1,1,1.6,2.7,1.7,4.2c0.2,5.7-0.2,11.5,0.2,17.2
			C102.3,49.8,100.6,53.2,97.8,56.5z M93.3,24.2C88.1,19,82.7,13.5,77.6,8.4v15.8H93.3z" />
			<path class="st0" d="M43.8,112.1c1.9-1.3,3.8-2.5,5.7-3.9c3-2.2,5.8-4.6,8.9-6.6c1-0.7,2.6-0.4,3.9-0.5c0.1,1.3,0.4,2.7,0.2,3.9
			c-0.5,2.8,0.5,4.8,3.4,4.7c4.4-0.2,8.9-1.1,13.3-1.8c0.5-0.1,1.3-1,1.3-1.6c1-12.6,8-22.7,13.7-33.4c1.8-3.4,3.6-6.7,5.6-10.2
			c3.3,1.8,6.6,3.6,10,5.5c-5.3,9.6-9.9,19.3-15.8,28.2c-5.9,8.9-13.8,16-25.4,16.6c-1.7,0.1-3.4,0.1-5.1-0.2
			c-3.6-0.7-4.9-2.8-4.4-6.5c0.1-0.6,0.1-1.2,0.3-2.5c-1.8,1.1-3.2,1.8-4.4,2.6c-3.1,2.2-6,4.8-9.2,6.7c-1.5,0.9-4.2,1.6-5.4,0.8
			c-2.2-1.4-1.2-4-0.2-6c1.5-2.7,3.2-5.3,4.9-7.9c0.6-1,1.2-2,2.3-3.8c-1.7,0.6-2.8,0.8-3.6,1.3c-4.8,3.2-9.4,6.4-14.2,9.6
			c-2.8,1.9-5.6,3.9-8.7,5.3c-1.5,0.7-4.1,0.5-5.5-0.4c-2-1.4-0.8-3.7,0.3-5.4c2.9-4.5,6.5-8,12.2-8.3c0.2,0.3,0.4,0.6,0.6,0.9
			c-1.2,0.7-2.4,1.3-3.5,2.1c-2.2,1.7-4.4,3.3-6.3,5.2c-0.6,0.7-0.2,2.4-0.3,3.6c1.1-0.1,2.5,0.1,3.3-0.5c3.2-2.1,6.2-4.4,9.4-6.5
			c3.3-2.3,6.6-4.6,9.9-6.8c1.2-0.8,2.6-1.7,4-2.1c1.6-0.4,3.4-0.1,5.1-0.2c-0.3,1.5-0.4,3.1-1.1,4.4c-1.5,2.9-3.5,5.6-5,8.5
			c-0.7,1.2-1,2.7-1.4,4.1C43,111.4,43.4,111.8,43.8,112.1L43.8,112.1z" />
			<path class="st0" d="M124.5,41c-4.2,7.8-8.4,15.3-12.7,23.2c-3.3-1.8-6.5-3.5-10-5.3c1.4-2.6,2.7-5,4-7.4
			c4.3-7.9,8.5-15.9,13-23.7c0.6-1,2.2-1.5,3.3-2.2c0.6-0.4,1.4-0.5,1.8-1c0.6-0.8,0.8-2,1.5-2.5c0.9-0.7,2.2-0.8,3.2-1.2
			c0.2,1.1,0.9,2.2,0.6,3.2c-0.4,1.4-1.3,2.7-2.1,4.2c3,1.3,2.8,3.4,1.2,5.6c-1.1,1.5-0.9,2.7-0.1,4.3c2.7,5.3,2.8,10.6-0.3,16
			c-3.3,5.6-6.2,11.4-9.4,17.1c-0.8,1.4-1.6,3.1-3.7,1.9c-1.9-1.1-1.1-2.7-0.3-4.2c3.3-6.1,6.6-12.1,9.9-18.2
			C126.4,47.6,126.4,44.5,124.5,41L124.5,41z" />
			<path class="st0" d="M50.9,49C61.4,49,72,48.9,82.5,49c1,0,2.1,1.3,3.1,2c-1,0.7-2,1.5-3.1,2c-0.5,0.2-1.2,0-1.8,0
			c-16.9,0-33.7,0-50.6,0c-3.5,0-7,0-10.5,0c-1.6,0-3.4-0.2-3-2.2c0.1-0.8,2-1.8,3-1.8C30,48.9,40.4,49,50.9,49z" />
			<path class="st0" d="M51.2,36.8c10.1,0,20.3,0,30.4,0c0.8,0,1.7-0.2,2.4,0.2c0.7,0.3,1.4,1.2,1.5,1.8c0.1,0.5-0.7,1.5-1.3,1.7
			c-0.9,0.4-2,0.3-2.9,0.3c-20.2,0-40.3,0-60.5,0c-0.5,0-1,0-1.5,0c-1.5,0-3.1-0.3-2.8-2.2c0.2-0.8,1.8-1.8,2.8-1.8
			C29.9,36.7,40.5,36.8,51.2,36.8L51.2,36.8z" />
			<path class="st0" d="M50.7,65.2c-10.3,0-20.7,0-31,0c-1.5,0-3.3,0.3-3.3-2c0-2.1,1.7-2.1,3.3-2.1c20.9,0,41.8,0,62.6,0
			c1.6,0,3.4,0.2,3.1,2.2c-0.1,0.8-2,1.8-3.1,1.8C71.8,65.3,61.3,65.2,50.7,65.2L50.7,65.2z" />
			<path class="st0" d="M38.6,28.5c-6.4,0-12.8,0-19.2,0c-1.5,0-3.2,0-2.9-2c0.2-0.9,1.9-2,2.9-2c12.8-0.1,25.6-0.1,38.4-0.1
			c1.6,0,3.2,0.1,3.1,2.3c-0.1,2-1.8,1.8-3.2,1.8C51.4,28.5,45,28.5,38.6,28.5L38.6,28.5z" />
			<path class="st0" d="M39.1,77.4c-6.5,0-13,0.1-19.6-0.1c-1.1,0-2.9-1-3.1-1.8c-0.4-2.2,1.6-2.1,3.1-2.1c13.1,0,26.3,0,39.4,0
			c1.5,0,3.1,0,3,2c0,2-1.6,2-3.1,2C52.4,77.4,45.8,77.4,39.1,77.4z" />
		</g>
	</g>
</svg>